# xmcd
#
# Track frame offsets:
#	150
#	6590
#	20718
#	32272
#	49669
#	62865
#	66731
#	70210
#	86530
#	92200
#	119556
#
# Disc length: 1681 seconds
#
# Revision: 0
# Processed by: cddbd v1.5.2PL0 Copyright (c) Steve Scherf et al.
# Submitted via: dBpowerAMP V4.0
#
DISCID=9e068f0b
DTITLE=Les Petits - The Mighty Antlers of Song E.Ps
DYEAR=2007
DGENRE=roots
TTITLE0=chickadee ATTACK!
TTITLE1=boy before the woods(it's a prequel)
TTITLE2=Coyote ATTACK!
TTITLE3=Chronograph #1 (C. van gaalen)
TTITLE4=Submersibles II: the Battle of Little Seahorn
TTITLE5=Gymnopedies #1 (e. satie)
TTITLE6=Stamen ATTACK!
TTITLE7=Best tasting wool in the whole world
TTITLE8=Spring carol(b. Britten)
TTITLE9=The rabbit Blackberry
TTITLE10=DATA
EXTD=
EXTT0=
EXTT1=
EXTT2=
EXTT3=
EXTT4=
EXTT5=
EXTT6=
EXTT7=
EXTT8=
EXTT9=
EXTT10=
PLAYORDER=
